<?xml version="1.0" encoding="UTF-8" standalone="no"?>
<!-- Generator: Adobe Illustrator 12.0.0, SVG Export Plug-In . SVG Version: 6.00 Build 51448)  -->

<svg
   xmlns:dc="http://purl.org/dc/elements/1.1/"
   xmlns:cc="http://creativecommons.org/ns#"
   xmlns:rdf="http://www.w3.org/1999/02/22-rdf-syntax-ns#"
   xmlns:svg="http://www.w3.org/2000/svg"
   xmlns="http://www.w3.org/2000/svg"
   xmlns:sodipodi="http://sodipodi.sourceforge.net/DTD/sodipodi-0.dtd"
   xmlns:inkscape="http://www.inkscape.org/namespaces/inkscape"
   id="Layer_1"
   sodipodi:docname="relogio digital.svg"
   xml:space="preserve"
   overflow="visible"
   sodipodi:version="0.32"
   viewBox="0 0 312.33295 99.757378"
   version="1.1"
   inkscape:output_extension="org.inkscape.output.svg.inkscape"
   enable-background="new 0 0 227.521 85.789"
   inkscape:version="0.48.5 r10040"
   width="100%"
   height="100%"
   style="overflow:visible"><title
     id="title5271">relógio digital</title><defs
     id="defs3302" /><sodipodi:namedview
     id="base"
     bordercolor="#666666"
     inkscape:pageshadow="2"
     guidetolerance="10.0"
     pagecolor="#ffffff"
     gridtolerance="10.0"
     objecttolerance="10.0"
     borderopacity="1.0"
     inkscape:window-height="971"
     showgrid="false"
     inkscape:pageopacity="0.0"
     inkscape:window-width="1280"
     fit-margin-top="0"
     fit-margin-left="0"
     fit-margin-right="0"
     fit-margin-bottom="0"
     inkscape:zoom="1.9634872"
     inkscape:cx="149.89403"
     inkscape:cy="71.637885"
     inkscape:window-x="0"
     inkscape:window-y="0"
     inkscape:window-maximized="1"
     inkscape:current-layer="Layer_1" /><metadata
     id="metadata3300"><rdf:RDF><cc:Work><dc:format>image/svg+xml</dc:format><dc:type
           rdf:resource="http://purl.org/dc/dcmitype/StillImage" /><cc:license
           rdf:resource="http://creativecommons.org/licenses/publicdomain/" /><dc:publisher><cc:Agent
             rdf:about="http://openclipart.org/"><dc:title>Openclipart</dc:title></cc:Agent></dc:publisher><dc:title>relógio digital</dc:title><dc:date>2015-09-15</dc:date><dc:description>Relógio digital com display apagado. </dc:description><dc:source></dc:source><dc:creator><cc:Agent><dc:title>Márcio Gomes</dc:title></cc:Agent></dc:creator><dc:subject><rdf:Bag><rdf:li>relógio</rdf:li><rdf:li>relógio digital</rdf:li><rdf:li>clock</rdf:li><rdf:li></rdf:li></rdf:Bag></dc:subject></cc:Work><cc:License
         rdf:about="http://creativecommons.org/licenses/publicdomain/"><cc:permits
           rdf:resource="http://creativecommons.org/ns#Reproduction" /><cc:permits
           rdf:resource="http://creativecommons.org/ns#Distribution" /><cc:permits
           rdf:resource="http://creativecommons.org/ns#DerivativeWorks" /></cc:License></rdf:RDF></metadata><g
     inkscape:groupmode="layer"
     id="layer1"
     inkscape:label="Camada"
     transform="translate(327.32622,-140.71808)" /><g
     inkscape:groupmode="layer"
     id="layer2"
     inkscape:label="Camada#1"
     transform="translate(327.32622,-140.71808)" /><g
     id="g5087"
     transform="translate(466.45259,535.72393)"><g
       transform="translate(0,120)"
       id="g4871"><path
         d="m -154.62856,-566.46798 c 0,5.51875 -3.36494,9.99251 -9.88854,9.99251 l -291.53804,0 c -6.52496,0 -9.88853,-4.47492 -9.88853,-9.99251 l 0,-78.75454 c 0,-5.51875 3.36357,-9.99249 9.88853,-9.99249 l 291.53804,0 c 6.52496,0 9.88854,4.47374 9.88854,9.99249 z"
         id="path4873"
         inkscape:connector-curvature="0"
         style="fill:#ffffff;stroke:#000000;stroke-width:1.01783562;stroke-miterlimit:4;stroke-dasharray:none"
         sodipodi:nodetypes="sssssssss" /><path
         d="m -166.03357,-573.09057 c 0,4.55395 -1.12828,8.24869 -7.1947,8.24869 l -275.08197,0 c -6.06644,0 -7.19056,-3.69474 -7.19056,-8.24869 l 0,-65.00303 c 0,-4.55508 1.12412,-8.24756 7.19056,-8.24756 l 275.08197,0 c 6.06642,0 7.1947,3.69248 7.1947,8.24756 z"
         id="path4875"
         inkscape:connector-curvature="0"
         style="fill:none;stroke:#000000;stroke-width:1.0184201;stroke-miterlimit:4;stroke-dasharray:none"
         sodipodi:nodetypes="sssssssss" /></g><g
       style="fill:#000000"
       id="g4877"
       transform="translate(-438.56225,-47.364218)"><g
         transform="translate(52.570045,-363.98171)"
         id="g4879"
         style="fill:#000000"><path
           inkscape:connector-curvature="0"
           id="path4881"
           d="m -4.6496503,-100.57686 -4.4687503,3.656253 -3.7812504,17.71875 2.875,3.75 4.5312507,-3.75 3.75,-17.65625 -2.90625,-3.718753 z"
           style="fill:#000000" /><path
           inkscape:connector-curvature="0"
           id="path4883"
           d="m -4.2583516,-77.965854 -4.53125,3.6875 2.9375,3.78125 16.2500026,0 4.53125,-3.78125 -2.9375,-3.6875 -16.2500026,0 z"
           style="fill:#000000" /><path
           style="fill:#000000"
           d="m 21.754754,-100.57686 -4.46875,3.656253 -3.781251,17.71875 2.875,3.75 4.531251,-3.75 3.75,-17.65625 -2.90625,-3.718753 z"
           id="path4885"
           inkscape:connector-curvature="0" /><path
           style="fill:#000000"
           d="m 1.5394455,-105.56145 -4.5312501,3.6875 2.93750005,3.78125 16.25000355,0 4.53125,-3.78125 -2.9375,-3.6875 -16.2500035,0 z"
           id="path4887"
           inkscape:connector-curvature="0" /><path
           style="fill:#000000"
           d="m -10.258354,-50.269157 -4.53125,3.6875 2.9375,3.78125 16.2500065,0 4.5312505,-3.78125 -2.9375,-3.6875 -16.250007,0 z"
           id="path4889"
           inkscape:connector-curvature="0" /><path
           style="fill:#000000"
           d="m -10.447448,-72.981264 -4.468751,3.656253 -3.78125,17.71875 2.875,3.75 4.531251,-3.75 3.7500007,-17.65625 -2.9062507,-3.718753 z"
           id="path4891"
           inkscape:connector-curvature="0" /><path
           inkscape:connector-curvature="0"
           id="path4893"
           d="m 15.855855,-72.981264 -4.468751,3.656253 -3.7812484,17.71875 2.8749984,3.75 4.531251,-3.75 3.750001,-17.65625 -2.906251,-3.718753 z"
           style="fill:#000000" /></g><g
         style="fill:#000000"
         id="g4895"
         transform="translate(8.5700465,-363.98171)"><path
           style="fill:#000000"
           d="m -4.6496503,-100.57686 -4.4687503,3.656253 -3.7812504,17.71875 2.875,3.75 4.5312507,-3.75 3.75,-17.65625 -2.90625,-3.718753 z"
           id="path4897"
           inkscape:connector-curvature="0" /><path
           style="fill:#000000"
           d="m -4.2583516,-77.965854 -4.53125,3.6875 2.9375,3.78125 16.2500026,0 4.53125,-3.78125 -2.9375,-3.6875 -16.2500026,0 z"
           id="path4899"
           inkscape:connector-curvature="0" /><path
           inkscape:connector-curvature="0"
           id="path4901"
           d="m 21.754754,-100.57686 -4.46875,3.656253 -3.781251,17.71875 2.875,3.75 4.531251,-3.75 3.75,-17.65625 -2.90625,-3.718753 z"
           style="fill:#000000" /><path
           inkscape:connector-curvature="0"
           id="path4903"
           d="m 1.5394455,-105.56145 -4.5312501,3.6875 2.93750005,3.78125 16.25000355,0 4.53125,-3.78125 -2.9375,-3.6875 -16.2500035,0 z"
           style="fill:#000000" /><path
           inkscape:connector-curvature="0"
           id="path4905"
           d="m -10.258354,-50.269157 -4.53125,3.6875 2.9375,3.78125 16.2500065,0 4.5312505,-3.78125 -2.9375,-3.6875 -16.250007,0 z"
           style="fill:#000000" /><path
           inkscape:connector-curvature="0"
           id="path4907"
           d="m -10.447448,-72.981264 -4.468751,3.656253 -3.78125,17.71875 2.875,3.75 4.531251,-3.75 3.7500007,-17.65625 -2.9062507,-3.718753 z"
           style="fill:#000000" /><path
           style="fill:#000000"
           d="m 15.855855,-72.981264 -4.468751,3.656253 -3.7812484,17.71875 2.8749984,3.75 4.531251,-3.75 3.750001,-17.65625 -2.906251,-3.718753 z"
           id="path4909"
           inkscape:connector-curvature="0" /></g><g
         style="fill:#000000"
         id="g4911"
         transform="translate(166.57005,-363.98171)"><path
           style="fill:#000000"
           d="m -4.6496503,-100.57686 -4.4687503,3.656253 -3.7812504,17.71875 2.875,3.75 4.5312507,-3.75 3.75,-17.65625 -2.90625,-3.718753 z"
           id="path4913"
           inkscape:connector-curvature="0" /><path
           style="fill:#000000"
           d="m -4.2583516,-77.965854 -4.53125,3.6875 2.9375,3.78125 16.2500026,0 4.53125,-3.78125 -2.9375,-3.6875 -16.2500026,0 z"
           id="path4915"
           inkscape:connector-curvature="0" /><path
           inkscape:connector-curvature="0"
           id="path4917"
           d="m 21.754754,-100.57686 -4.46875,3.656253 -3.781251,17.71875 2.875,3.75 4.531251,-3.75 3.75,-17.65625 -2.90625,-3.718753 z"
           style="fill:#000000" /><path
           inkscape:connector-curvature="0"
           id="path4919"
           d="m 1.5394455,-105.56145 -4.5312501,3.6875 2.93750005,3.78125 16.25000355,0 4.53125,-3.78125 -2.9375,-3.6875 -16.2500035,0 z"
           style="fill:#000000" /><path
           inkscape:connector-curvature="0"
           id="path4921"
           d="m -10.258354,-50.269157 -4.53125,3.6875 2.9375,3.78125 16.2500065,0 4.5312505,-3.78125 -2.9375,-3.6875 -16.250007,0 z"
           style="fill:#000000" /><path
           inkscape:connector-curvature="0"
           id="path4923"
           d="m -10.447448,-72.981264 -4.468751,3.656253 -3.78125,17.71875 2.875,3.75 4.531251,-3.75 3.7500007,-17.65625 -2.9062507,-3.718753 z"
           style="fill:#000000" /><path
           style="fill:#000000"
           d="m 15.855855,-72.981264 -4.468751,3.656253 -3.7812484,17.71875 2.8749984,3.75 4.531251,-3.75 3.750001,-17.65625 -2.906251,-3.718753 z"
           id="path4925"
           inkscape:connector-curvature="0" /></g><g
         transform="translate(122.57005,-363.98171)"
         id="g4927"
         style="fill:#000000"><path
           inkscape:connector-curvature="0"
           id="path4929"
           d="m -4.6496503,-100.57686 -4.4687503,3.656253 -3.7812504,17.71875 2.875,3.75 4.5312507,-3.75 3.75,-17.65625 -2.90625,-3.718753 z"
           style="fill:#000000" /><path
           inkscape:connector-curvature="0"
           id="path4931"
           d="m -4.2583516,-77.965854 -4.53125,3.6875 2.9375,3.78125 16.2500026,0 4.53125,-3.78125 -2.9375,-3.6875 -16.2500026,0 z"
           style="fill:#000000" /><path
           style="fill:#000000"
           d="m 21.754754,-100.57686 -4.46875,3.656253 -3.781251,17.71875 2.875,3.75 4.531251,-3.75 3.75,-17.65625 -2.90625,-3.718753 z"
           id="path4933"
           inkscape:connector-curvature="0" /><path
           style="fill:#000000"
           d="m 1.5394455,-105.56145 -4.5312501,3.6875 2.93750005,3.78125 16.25000355,0 4.53125,-3.78125 -2.9375,-3.6875 -16.2500035,0 z"
           id="path4935"
           inkscape:connector-curvature="0" /><path
           style="fill:#000000"
           d="m -10.258354,-50.269157 -4.53125,3.6875 2.9375,3.78125 16.2500065,0 4.5312505,-3.78125 -2.9375,-3.6875 -16.250007,0 z"
           id="path4937"
           inkscape:connector-curvature="0" /><path
           style="fill:#000000"
           d="m -10.447448,-72.981264 -4.468751,3.656253 -3.78125,17.71875 2.875,3.75 4.531251,-3.75 3.7500007,-17.65625 -2.9062507,-3.718753 z"
           id="path4939"
           inkscape:connector-curvature="0" /><path
           inkscape:connector-curvature="0"
           id="path4941"
           d="m 15.855855,-72.981264 -4.468751,3.656253 -3.7812484,17.71875 2.8749984,3.75 4.531251,-3.75 3.750001,-17.65625 -2.906251,-3.718753 z"
           style="fill:#000000" /></g><g
         transform="matrix(0.49084576,0,0,0.49084576,254.60533,-416.02433)"
         id="g4943"
         style="fill:#000000"><path
           inkscape:connector-curvature="0"
           id="path4945"
           d="m -4.6496503,-100.57686 -4.4687503,3.656253 -3.7812504,17.71875 2.875,3.75 4.5312507,-3.75 3.75,-17.65625 -2.90625,-3.718753 z"
           style="fill:#000000" /><path
           inkscape:connector-curvature="0"
           id="path4947"
           d="m -4.2583516,-77.965854 -4.53125,3.6875 2.9375,3.78125 16.2500026,0 4.53125,-3.78125 -2.9375,-3.6875 -16.2500026,0 z"
           style="fill:#000000" /><path
           style="fill:#000000"
           d="m 21.754754,-100.57686 -4.46875,3.656253 -3.781251,17.71875 2.875,3.75 4.531251,-3.75 3.75,-17.65625 -2.90625,-3.718753 z"
           id="path4949"
           inkscape:connector-curvature="0" /><path
           style="fill:#000000"
           d="m 1.5394455,-105.56145 -4.5312501,3.6875 2.93750005,3.78125 16.25000355,0 4.53125,-3.78125 -2.9375,-3.6875 -16.2500035,0 z"
           id="path4951"
           inkscape:connector-curvature="0" /><path
           style="fill:#000000"
           d="m -10.258354,-50.269157 -4.53125,3.6875 2.9375,3.78125 16.2500065,0 4.5312505,-3.78125 -2.9375,-3.6875 -16.250007,0 z"
           id="path4953"
           inkscape:connector-curvature="0" /><path
           style="fill:#000000"
           d="m -10.447448,-72.981264 -4.468751,3.656253 -3.78125,17.71875 2.875,3.75 4.531251,-3.75 3.7500007,-17.65625 -2.9062507,-3.718753 z"
           id="path4955"
           inkscape:connector-curvature="0" /><path
           inkscape:connector-curvature="0"
           id="path4957"
           d="m 15.855855,-72.981264 -4.468751,3.656253 -3.7812484,17.71875 2.8749984,3.75 4.531251,-3.75 3.750001,-17.65625 -2.906251,-3.718753 z"
           style="fill:#000000" /></g><g
         style="fill:#000000"
         id="g4959"
         transform="matrix(0.49084576,0,0,0.49084576,233.01654,-416.02433)"><path
           style="fill:#000000"
           d="m -4.6496503,-100.57686 -4.4687503,3.656253 -3.7812504,17.71875 2.875,3.75 4.5312507,-3.75 3.75,-17.65625 -2.90625,-3.718753 z"
           id="path4961"
           inkscape:connector-curvature="0" /><path
           style="fill:#000000"
           d="m -4.2583516,-77.965854 -4.53125,3.6875 2.9375,3.78125 16.2500026,0 4.53125,-3.78125 -2.9375,-3.6875 -16.2500026,0 z"
           id="path4963"
           inkscape:connector-curvature="0" /><path
           inkscape:connector-curvature="0"
           id="path4965"
           d="m 21.754754,-100.57686 -4.46875,3.656253 -3.781251,17.71875 2.875,3.75 4.531251,-3.75 3.75,-17.65625 -2.90625,-3.718753 z"
           style="fill:#000000" /><path
           inkscape:connector-curvature="0"
           id="path4967"
           d="m 1.5394455,-105.56145 -4.5312501,3.6875 2.93750005,3.78125 16.25000355,0 4.53125,-3.78125 -2.9375,-3.6875 -16.2500035,0 z"
           style="fill:#000000" /><path
           inkscape:connector-curvature="0"
           id="path4969"
           d="m -10.258354,-50.269157 -4.53125,3.6875 2.9375,3.78125 16.2500065,0 4.5312505,-3.78125 -2.9375,-3.6875 -16.250007,0 z"
           style="fill:#000000" /><path
           inkscape:connector-curvature="0"
           id="path4971"
           d="m -10.447448,-72.981264 -4.468751,3.656253 -3.78125,17.71875 2.875,3.75 4.531251,-3.75 3.7500007,-17.65625 -2.9062507,-3.718753 z"
           style="fill:#000000" /><path
           style="fill:#000000"
           d="m 15.855855,-72.981264 -4.468751,3.656253 -3.7812484,17.71875 2.8749984,3.75 4.531251,-3.75 3.750001,-17.65625 -2.906251,-3.718753 z"
           id="path4973"
           inkscape:connector-curvature="0" /></g><path
         inkscape:connector-curvature="0"
         id="path4975"
         style="fill:#000000"
         d="m 93.231819,-426.33377 -0.35,1.813 -5.78,4.743 -3.701,-4.743 0.35,-1.813 5.791,-4.743 3.69,4.743 z m 5.37,-25.11 -0.42,1.813 -5.71,4.812 -3.77,-4.812 0.42,-1.813 5.72,-4.743 3.76,4.743 z" /><path
         d="m 209.9041,-426.33377 -0.35,1.813 -5.78,4.743 -3.701,-4.743 0.35,-1.813 5.791,-4.743 3.69,4.743 z m 5.37,-25.11 -0.42,1.813 -5.71,4.812 -3.77,-4.812 0.42,-1.813 5.72,-4.743 3.76,4.743 z"
         style="fill:#000000"
         id="path4977"
         inkscape:connector-curvature="0" /></g></g></svg>